# xmcd CD database file
#
# Track frame offsets:
#	150
#	10660
#	22210
#	34835
#	46035
#	57687
#	69935
#	80717
#	91415
#	104260
#	114917
#	126642
#	141770
#	152380
#	165580
#	179022
#
# Disc length: 2539 seconds
#
# Revision: 6
# Processed by: cddbd v1.5.1PL0 Copyright (c) Steve Scherf et al.
# Submitted via: CDex 1.51
#
DISCID=d509e910
DTITLE=Various Artist - Country Hits 1950-65 - CD1
DYEAR=1988
DGENRE=Country
TTITLE0=Johnny Russel - Jambalaya
TTITLE1=Kitty Wells - Heartbreak U.S.A.
TTITLE2=Bobby Helms - Fraulein
TTITLE3=Carl Smith - Hey, Joe
TTITLE4=Carl Smith - Loose Talk
TTITLE5=Hank Thompson - The Wild Side Of Life
TTITLE6=Hank Thompson - Wake Up Irene
TTITLE7=Carl Smith - Don't Just Stand There
TTITLE8=Carl Smith - Let Old Mother Nature Heave Her Way
TTITLE9=Stonewall Jackson - Slowly
TTITLE10=Bobby Helms - Jaqueline
TTITLE11=Kingston Trio - Tom Dooley
TTITLE12=Hank Locklin - Let Me Be The One
TTITLE13=Pee Wee King - Slow Poke
TTITLE14=Ferlin Husky - Country Music Is Here To Stay
TTITLE15=Kitty Wells - It Wasn't God Who Made Honky Tonk Angels
EXTD=Nr:24002\nEin Produkt der DELTA-Music GmbH\nD-5020 Frenchen 4 YEAR: 1988
EXTT0=
EXTT1=
EXTT2=
EXTT3=
EXTT4=
EXTT5=
EXTT6=
EXTT7=
EXTT8=
EXTT9=
EXTT10=
EXTT11=
EXTT12=
EXTT13=
EXTT14=
EXTT15=
PLAYORDER=
